<?xml version="1.0" standalone="no"?><!DOCTYPE svg PUBLIC "-//W3C//DTD SVG 1.1//EN" "http://www.w3.org/Graphics/SVG/1.1/DTD/svg11.dtd"><svg t="1609743897638" class="icon" viewBox="0 0 1024 1024" version="1.1" xmlns="http://www.w3.org/2000/svg" p-id="2513" xmlns:xlink="http://www.w3.org/1999/xlink" width="200" height="200"><defs><style type="text/css"></style></defs><path d="M512.023273 279.272727C383.499636 279.272727 279.272727 383.499636 279.272727 512.023273 279.272727 640.581818 383.499636 744.727273 512.023273 744.727273 640.581818 744.727273 744.727273 640.535273 744.727273 512.023273 744.727273 383.499636 640.581818 279.272727 512.023273 279.272727z m5.794909-128c22.504727 0 40.727273-16.930909 40.727273-37.783272V37.818182C558.545455 16.930909 540.322909 0 517.818182 0S477.090909 16.930909 477.090909 37.818182v75.671273C477.090909 134.388364 495.313455 151.272727 517.818182 151.272727z m0 721.454546c-22.504727 0-40.727273 16.954182-40.727273 37.818182v75.601454c0 20.945455 18.222545 37.853091 40.727273 37.853091s40.727273-16.919273 40.727273-37.853091V910.545455C558.545455 889.681455 540.322909 872.727273 517.818182 872.727273z m468.328727-395.636364H910.545455C889.646545 477.090909 872.727273 495.313455 872.727273 517.818182s16.919273 40.727273 37.818182 40.727273h75.601454c20.945455 0 37.853091-18.222545 37.853091-40.727273S1007.080727 477.090909 986.146909 477.090909zM151.272727 517.818182c0-22.504727-16.930909-40.727273-37.818182-40.727273h-75.636363C16.977455 477.090909 0 495.313455 0 517.818182S16.965818 558.545455 37.818182 558.545455h75.671273C134.388364 558.545455 151.272727 540.322909 151.272727 517.818182z m657.454546-249.518546l53.003636-53.026909a37.504 37.504 0 0 0-53.015273-53.026909L755.665455 215.272727a37.608727 37.608727 0 0 0 0 53.026909 37.550545 37.550545 0 0 0 53.061818 0z m-593.454546 487.365819l-53.026909 53.061818a37.504 37.504 0 0 0 0 53.003636 37.445818 37.445818 0 0 0 53.015273 0l53.026909-53.015273a37.515636 37.515636 0 0 0 0-53.061818 37.597091 37.597091 0 0 0-53.026909 0z m593.454546 0a37.632 37.632 0 0 0-53.050182 0c-14.615273 14.580364-14.580364 38.341818 0 53.061818l53.050182 53.003636a37.434182 37.434182 0 0 0 53.003636 0 37.445818 37.445818 0 0 0 0-53.015273L808.727273 755.665455z m-593.454546-593.419637a37.515636 37.515636 0 0 0-53.026909 0 37.515636 37.515636 0 0 0 0 53.015273l53.015273 53.026909a37.480727 37.480727 0 1 0 53.026909-53.026909l-53.026909-53.015273z" fill="#FCD115" p-id="2514"></path></svg>